<svg xmlns="http://www.w3.org/2000/svg" width="100%" height="100%" preserveAspectRatio="xMidYMid slice" viewBox="0 0 2048 1020"><defs><linearGradient id="g" x1="0" y1="0" x2="0" y2="1"><stop offset="8.3%" stop-color="#FBF2E2"/><stop offset="10.7%" stop-color="#faefdd"/><stop offset="13.1%" stop-color="#f9ecd9"/><stop offset="15.5%" stop-color="#f8e9d4"/><stop offset="17.9%" stop-color="#f6e6d0"/><stop offset="20.2%" stop-color="#f5e3cb"/><stop offset="22.6%" stop-color="#f4e0c7"/><stop offset="25.0%" stop-color="#F3DDC2"/><stop offset="27.4%" stop-color="#efd8bf"/><stop offset="29.8%" stop-color="#ecd3bc"/><stop offset="32.1%" stop-color="#e8cfb9"/><stop offset="34.5%" stop-color="#e4cab7"/><stop offset="36.9%" stop-color="#e0c5b4"/><stop offset="39.3%" stop-color="#ddc1b1"/><stop offset="41.7%" stop-color="#D9BCAE"/><stop offset="44.0%" stop-color="#d3b5ab"/><stop offset="46.4%" stop-color="#cdafa9"/><stop offset="48.8%" stop-color="#c7a9a6"/><stop offset="51.2%" stop-color="#c1a2a3"/><stop offset="53.6%" stop-color="#bc9ca1"/><stop offset="56.0%" stop-color="#b6959e"/><stop offset="58.3%" stop-color="#B08F9B"/><stop offset="60.7%" stop-color="#a88998"/><stop offset="63.1%" stop-color="#a08394"/><stop offset="65.5%" stop-color="#987c91"/><stop offset="67.9%" stop-color="#91768d"/><stop offset="70.2%" stop-color="#89708a"/><stop offset="72.6%" stop-color="#816a87"/><stop offset="75.0%" stop-color="#7A6483"/><stop offset="77.4%" stop-color="#725e7e"/><stop offset="79.8%" stop-color="#6b5878"/><stop offset="82.1%" stop-color="#635273"/><stop offset="84.5%" stop-color="#5c4c6e"/><stop offset="86.9%" stop-color="#544668"/><stop offset="89.3%" stop-color="#4d4063"/><stop offset="91.7%" stop-color="#463A5E"/></linearGradient><radialGradient id="mv" cx="50%" cy="50%" r="50%"><stop offset="0%" stop-color="#F3DDC2" stop-opacity="0.9"/><stop offset="55%" stop-color="#F3DDC2" stop-opacity="0.42"/><stop offset="100%" stop-color="#F3DDC2" stop-opacity="0"/></radialGradient><radialGradient id="mh" cx="50%" cy="50%" r="50%"><stop offset="0%" stop-color="#fcf7ec" stop-opacity="0.4"/><stop offset="100%" stop-color="#fcf7ec" stop-opacity="0"/></radialGradient><linearGradient id="mair" x1="0" y1="0" x2="0" y2="1"><stop offset="0%" stop-color="#F3DDC2" stop-opacity="0"/><stop offset="100%" stop-color="#F3DDC2" stop-opacity="0.260"/></linearGradient><linearGradient id="mr0" gradientUnits="userSpaceOnUse" x1="0" y1="405.9" x2="0" y2="501.8"><stop offset="0%" stop-color="#e4cab6"/><stop offset="45%" stop-color="#e6cdb8"/><stop offset="100%" stop-color="#f2dcc1"/></linearGradient><linearGradient id="mr1" gradientUnits="userSpaceOnUse" x1="0" y1="461.1" x2="0" y2="609.1"><stop offset="0%" stop-color="#ccafab"/><stop offset="45%" stop-color="#d2b6af"/><stop offset="100%" stop-color="#edd6bf"/></linearGradient><linearGradient id="mr2" gradientUnits="userSpaceOnUse" x1="0" y1="534.3" x2="0" y2="734.5"><stop offset="0%" stop-color="#a78d9a"/><stop offset="45%" stop-color="#b399a1"/><stop offset="100%" stop-color="#dfc8b8"/></linearGradient><linearGradient id="mr3" gradientUnits="userSpaceOnUse" x1="0" y1="621.0" x2="0" y2="873.3"><stop offset="0%" stop-color="#796681"/><stop offset="45%" stop-color="#8b788c"/><stop offset="100%" stop-color="#c6b2ac"/></linearGradient><linearGradient id="mr4" gradientUnits="userSpaceOnUse" x1="0" y1="719.6" x2="0" y2="1023.1"><stop offset="0%" stop-color="#463a5e"/><stop offset="45%" stop-color="#5f526e"/><stop offset="100%" stop-color="#a09095"/></linearGradient><filter id="mb0" x="-4%" y="-30%" width="108%" height="160%"><feGaussianBlur stdDeviation="6.12"/></filter><filter id="mb1" x="-4%" y="-30%" width="108%" height="160%"><feGaussianBlur stdDeviation="3.43"/></filter><filter id="mb2" x="-4%" y="-30%" width="108%" height="160%"><feGaussianBlur stdDeviation="1.51"/></filter></defs><rect id="Sky" width="2048" height="1020" fill="url(#g)"/><ellipse id="Sun halo" cx="1310.7" cy="316.2" rx="180.3" ry="180.3" fill="url(#mh)"/><circle id="Sun" cx="1310.7" cy="316.2" r="53.0" fill="#fcf7ec" opacity="0.85"/><g id="Range 1"><path d="M0.0,442.0C3.1,441.9 12.4,441.6 18.6,441.3C24.8,441.0 31.0,440.7 37.2,440.4C43.4,440.1 49.6,439.8 55.9,439.5C62.1,439.2 68.3,438.7 74.5,438.7C80.7,438.7 86.9,439.2 93.1,439.7C99.3,440.2 105.5,440.9 111.7,441.6C117.9,442.3 124.1,443.2 130.3,444.0C136.5,444.8 142.7,445.7 148.9,446.5C155.2,447.4 161.4,448.3 167.6,449.2C173.8,450.0 180.0,450.9 186.2,451.8C192.4,452.6 198.6,453.4 204.8,454.1C211.0,454.9 217.2,455.6 223.4,456.2C229.6,456.8 235.8,457.3 242.0,457.8C248.2,458.2 254.4,458.6 260.7,459.0C266.9,459.4 273.1,459.8 279.3,460.2C285.5,460.6 291.7,461.0 297.9,461.4C304.1,461.8 310.3,462.1 316.5,462.5C322.7,462.8 328.9,463.2 335.1,463.5C341.3,463.9 347.5,464.2 353.7,464.5C360.0,464.8 366.2,465.1 372.4,465.4C378.6,465.7 384.8,466.0 391.0,466.2C397.2,466.5 403.4,466.7 409.6,466.9C415.8,467.2 422.0,467.4 428.2,467.5C434.4,467.7 440.6,467.9 446.8,468.0C453.0,468.2 459.2,468.3 465.5,468.4C471.7,468.4 477.9,468.5 484.1,468.6C490.3,468.6 496.5,468.6 502.7,468.6C508.9,468.6 515.1,468.5 521.3,468.4C527.5,468.3 533.7,468.1 539.9,467.9C546.1,467.7 552.3,467.4 558.5,467.0C564.8,466.7 571.0,466.3 577.2,465.8C583.4,465.4 589.6,464.9 595.8,464.4C602.0,463.8 608.2,463.3 614.4,462.7C620.6,462.1 626.8,461.4 633.0,460.8C639.2,460.1 645.4,459.5 651.6,458.8C657.8,458.1 664.0,457.4 670.3,456.7C676.5,456.0 682.7,455.3 688.9,454.6C695.1,453.9 701.3,453.2 707.5,452.5C713.7,451.8 719.9,451.1 726.1,450.5C732.3,449.8 738.5,449.2 744.7,448.5C750.9,447.9 757.1,447.3 763.3,446.7C769.6,446.2 775.8,445.6 782.0,445.1C788.2,444.6 794.4,444.2 800.6,443.6C806.8,443.1 813.0,442.5 819.2,441.9C825.4,441.3 831.6,440.7 837.8,440.1C844.0,439.4 850.2,438.7 856.4,438.1C862.6,437.4 868.8,436.6 875.1,436.2C881.3,435.8 887.5,435.5 893.7,435.7C899.9,435.9 906.1,436.7 912.3,437.3C918.5,438.0 924.7,438.9 930.9,439.7C937.1,440.5 943.3,441.3 949.5,442.1C955.7,442.9 961.9,443.8 968.1,444.6C974.4,445.4 980.6,446.2 986.8,446.9C993.0,447.6 999.2,448.3 1005.4,449.0C1011.6,449.6 1017.8,450.2 1024.0,450.6C1030.2,451.1 1036.4,451.5 1042.6,451.8C1048.8,452.1 1055.0,452.2 1061.2,452.3C1067.4,452.3 1073.6,452.3 1079.9,452.1C1086.1,452.0 1092.3,451.7 1098.5,451.5C1104.7,451.2 1110.9,450.8 1117.1,450.4C1123.3,450.0 1129.5,449.5 1135.7,449.0C1141.9,448.6 1148.1,448.0 1154.3,447.5C1160.5,447.0 1166.7,446.5 1172.9,445.9C1179.2,445.4 1185.4,444.9 1191.6,444.4C1197.8,443.9 1204.0,443.4 1210.2,443.0C1216.4,442.6 1222.6,442.1 1228.8,441.8C1235.0,441.4 1241.2,440.9 1247.4,440.8C1253.6,440.6 1259.8,440.9 1266.0,441.1C1272.2,441.3 1278.4,441.7 1284.7,442.0C1290.9,442.3 1297.1,442.5 1303.3,442.8C1309.5,443.0 1315.7,443.2 1321.9,443.3C1328.1,443.4 1334.3,443.4 1340.5,443.5C1346.7,443.5 1352.9,443.5 1359.1,443.6C1365.3,443.7 1371.5,443.7 1377.7,443.8C1384.0,443.9 1390.2,444.0 1396.4,444.2C1402.6,444.3 1408.8,444.4 1415.0,444.6C1421.2,444.7 1427.4,444.9 1433.6,445.0C1439.8,445.2 1446.0,445.4 1452.2,445.6C1458.4,445.8 1464.6,446.0 1470.8,446.1C1477.0,446.3 1483.2,446.5 1489.5,446.7C1495.7,446.9 1501.9,447.1 1508.1,447.3C1514.3,447.5 1520.5,447.7 1526.7,447.9C1532.9,448.0 1539.1,448.2 1545.3,448.4C1551.5,448.5 1557.7,448.7 1563.9,448.8C1570.1,448.9 1576.3,449.0 1582.5,449.1C1588.8,449.2 1595.0,449.2 1601.2,449.3C1607.4,449.3 1613.6,449.3 1619.8,449.2C1626.0,449.2 1632.2,449.0 1638.4,448.8C1644.6,448.6 1650.8,448.4 1657.0,448.1C1663.2,447.8 1669.4,447.4 1675.6,447.0C1681.8,446.7 1688.0,446.3 1694.3,445.9C1700.5,445.5 1706.7,445.0 1712.9,444.6C1719.1,444.2 1725.3,443.8 1731.5,443.4C1737.7,443.1 1743.9,442.6 1750.1,442.3C1756.3,442.0 1762.5,441.6 1768.7,441.6C1774.9,441.7 1781.1,442.4 1787.3,442.7C1793.6,443.1 1799.8,443.5 1806.0,443.9C1812.2,444.3 1818.4,444.7 1824.6,445.0C1830.8,445.4 1837.0,445.7 1843.2,446.0C1849.4,446.3 1855.6,446.6 1861.8,446.8C1868.0,447.0 1874.2,447.1 1880.4,447.2C1886.6,447.3 1892.8,447.3 1899.1,447.4C1905.3,447.5 1911.5,447.6 1917.7,447.7C1923.9,447.9 1930.1,448.0 1936.3,448.2C1942.5,448.4 1948.7,448.6 1954.9,448.9C1961.1,449.1 1967.3,449.4 1973.5,449.6C1979.7,449.9 1985.9,450.2 1992.1,450.5C1998.4,450.8 2004.6,451.1 2010.8,451.4C2017.0,451.8 2023.2,452.1 2029.4,452.4C2035.6,452.7 2044.9,453.2 2048.0,453.4L2048,1020L0,1020Z" fill="url(#mr0)" filter="url(#mb0)"/><path id="Crest light 1" d="M0.0,442.0C3.1,441.9 12.4,441.6 18.6,441.3C24.8,441.0 31.0,440.7 37.2,440.4C43.4,440.1 49.6,439.8 55.9,439.5C62.1,439.2 68.3,438.7 74.5,438.7C80.7,438.7 86.9,439.2 93.1,439.7C99.3,440.2 105.5,440.9 111.7,441.6C117.9,442.3 124.1,443.2 130.3,444.0C136.5,444.8 142.7,445.7 148.9,446.5C155.2,447.4 161.4,448.3 167.6,449.2C173.8,450.0 180.0,450.9 186.2,451.8C192.4,452.6 198.6,453.4 204.8,454.1C211.0,454.9 217.2,455.6 223.4,456.2C229.6,456.8 235.8,457.3 242.0,457.8C248.2,458.2 254.4,458.6 260.7,459.0C266.9,459.4 273.1,459.8 279.3,460.2C285.5,460.6 291.7,461.0 297.9,461.4C304.1,461.8 310.3,462.1 316.5,462.5C322.7,462.8 328.9,463.2 335.1,463.5C341.3,463.9 347.5,464.2 353.7,464.5C360.0,464.8 366.2,465.1 372.4,465.4C378.6,465.7 384.8,466.0 391.0,466.2C397.2,466.5 403.4,466.7 409.6,466.9C415.8,467.2 422.0,467.4 428.2,467.5C434.4,467.7 440.6,467.9 446.8,468.0C453.0,468.2 459.2,468.3 465.5,468.4C471.7,468.4 477.9,468.5 484.1,468.6C490.3,468.6 496.5,468.6 502.7,468.6C508.9,468.6 515.1,468.5 521.3,468.4C527.5,468.3 533.7,468.1 539.9,467.9C546.1,467.7 552.3,467.4 558.5,467.0C564.8,466.7 571.0,466.3 577.2,465.8C583.4,465.4 589.6,464.9 595.8,464.4C602.0,463.8 608.2,463.3 614.4,462.7C620.6,462.1 626.8,461.4 633.0,460.8C639.2,460.1 645.4,459.5 651.6,458.8C657.8,458.1 664.0,457.4 670.3,456.7C676.5,456.0 682.7,455.3 688.9,454.6C695.1,453.9 701.3,453.2 707.5,452.5C713.7,451.8 719.9,451.1 726.1,450.5C732.3,449.8 738.5,449.2 744.7,448.5C750.9,447.9 757.1,447.3 763.3,446.7C769.6,446.2 775.8,445.6 782.0,445.1C788.2,444.6 794.4,444.2 800.6,443.6C806.8,443.1 813.0,442.5 819.2,441.9C825.4,441.3 831.6,440.7 837.8,440.1C844.0,439.4 850.2,438.7 856.4,438.1C862.6,437.4 868.8,436.6 875.1,436.2C881.3,435.8 887.5,435.5 893.7,435.7C899.9,435.9 906.1,436.7 912.3,437.3C918.5,438.0 924.7,438.9 930.9,439.7C937.1,440.5 943.3,441.3 949.5,442.1C955.7,442.9 961.9,443.8 968.1,444.6C974.4,445.4 980.6,446.2 986.8,446.9C993.0,447.6 999.2,448.3 1005.4,449.0C1011.6,449.6 1017.8,450.2 1024.0,450.6C1030.2,451.1 1036.4,451.5 1042.6,451.8C1048.8,452.1 1055.0,452.2 1061.2,452.3C1067.4,452.3 1073.6,452.3 1079.9,452.1C1086.1,452.0 1092.3,451.7 1098.5,451.5C1104.7,451.2 1110.9,450.8 1117.1,450.4C1123.3,450.0 1129.5,449.5 1135.7,449.0C1141.9,448.6 1148.1,448.0 1154.3,447.5C1160.5,447.0 1166.7,446.5 1172.9,445.9C1179.2,445.4 1185.4,444.9 1191.6,444.4C1197.8,443.9 1204.0,443.4 1210.2,443.0C1216.4,442.6 1222.6,442.1 1228.8,441.8C1235.0,441.4 1241.2,440.9 1247.4,440.8C1253.6,440.6 1259.8,440.9 1266.0,441.1C1272.2,441.3 1278.4,441.7 1284.7,442.0C1290.9,442.3 1297.1,442.5 1303.3,442.8C1309.5,443.0 1315.7,443.2 1321.9,443.3C1328.1,443.4 1334.3,443.4 1340.5,443.5C1346.7,443.5 1352.9,443.5 1359.1,443.6C1365.3,443.7 1371.5,443.7 1377.7,443.8C1384.0,443.9 1390.2,444.0 1396.4,444.2C1402.6,444.3 1408.8,444.4 1415.0,444.6C1421.2,444.7 1427.4,444.9 1433.6,445.0C1439.8,445.2 1446.0,445.4 1452.2,445.6C1458.4,445.8 1464.6,446.0 1470.8,446.1C1477.0,446.3 1483.2,446.5 1489.5,446.7C1495.7,446.9 1501.9,447.1 1508.1,447.3C1514.3,447.5 1520.5,447.7 1526.7,447.9C1532.9,448.0 1539.1,448.2 1545.3,448.4C1551.5,448.5 1557.7,448.7 1563.9,448.8C1570.1,448.9 1576.3,449.0 1582.5,449.1C1588.8,449.2 1595.0,449.2 1601.2,449.3C1607.4,449.3 1613.6,449.3 1619.8,449.2C1626.0,449.2 1632.2,449.0 1638.4,448.8C1644.6,448.6 1650.8,448.4 1657.0,448.1C1663.2,447.8 1669.4,447.4 1675.6,447.0C1681.8,446.7 1688.0,446.3 1694.3,445.9C1700.5,445.5 1706.7,445.0 1712.9,444.6C1719.1,444.2 1725.3,443.8 1731.5,443.4C1737.7,443.1 1743.9,442.6 1750.1,442.3C1756.3,442.0 1762.5,441.6 1768.7,441.6C1774.9,441.7 1781.1,442.4 1787.3,442.7C1793.6,443.1 1799.8,443.5 1806.0,443.9C1812.2,444.3 1818.4,444.7 1824.6,445.0C1830.8,445.4 1837.0,445.7 1843.2,446.0C1849.4,446.3 1855.6,446.6 1861.8,446.8C1868.0,447.0 1874.2,447.1 1880.4,447.2C1886.6,447.3 1892.8,447.3 1899.1,447.4C1905.3,447.5 1911.5,447.6 1917.7,447.7C1923.9,447.9 1930.1,448.0 1936.3,448.2C1942.5,448.4 1948.7,448.6 1954.9,448.9C1961.1,449.1 1967.3,449.4 1973.5,449.6C1979.7,449.9 1985.9,450.2 1992.1,450.5C1998.4,450.8 2004.6,451.1 2010.8,451.4C2017.0,451.8 2023.2,452.1 2029.4,452.4C2035.6,452.7 2044.9,453.2 2048.0,453.4" fill="none" stroke="#f0d9c0" stroke-width="3.6" stroke-linecap="round" opacity="0.200" filter="url(#mb0)"/><ellipse id="Mist 1" cx="655.4" cy="517.9" rx="1269.8" ry="86.7" fill="url(#mv)" opacity="0.620"/></g><g id="Range 2"><path d="M0.0,583.0C3.1,582.4 12.4,581.0 18.6,579.7C24.8,578.5 31.0,577.0 37.2,575.5C43.4,574.0 49.6,572.4 55.9,570.8C62.1,569.2 68.3,567.5 74.5,566.0C80.7,564.5 86.9,562.0 93.1,561.9C99.3,561.7 105.5,563.8 111.7,564.9C117.9,566.0 124.1,567.2 130.3,568.5C136.5,569.7 142.7,571.0 148.9,572.2C155.2,573.4 161.4,574.6 167.6,575.6C173.8,576.5 180.0,577.4 186.2,578.0C192.4,578.6 198.6,578.9 204.8,579.2C211.0,579.4 217.2,579.4 223.4,579.5C229.6,579.6 235.8,579.6 242.0,579.6C248.2,579.7 254.4,579.7 260.7,579.7C266.9,579.6 273.1,579.6 279.3,579.6C285.5,579.5 291.7,579.4 297.9,579.3C304.1,579.3 310.3,579.1 316.5,579.0C322.7,578.9 328.9,578.8 335.1,578.6C341.3,578.5 347.5,578.3 353.7,578.1C360.0,578.0 366.2,577.8 372.4,577.6C378.6,577.3 384.8,577.1 391.0,576.9C397.2,576.7 403.4,576.4 409.6,576.1C415.8,575.9 422.0,575.6 428.2,575.4C434.4,575.1 440.6,574.8 446.8,574.4C453.0,574.0 459.2,573.4 465.5,572.7C471.7,572.0 477.9,571.2 484.1,570.4C490.3,569.6 496.5,568.6 502.7,567.7C508.9,566.7 515.1,565.7 521.3,564.7C527.5,563.7 533.7,562.6 539.9,561.6C546.1,560.7 552.3,559.7 558.5,558.7C564.8,557.8 571.0,556.5 577.2,556.1C583.4,555.6 589.6,556.1 595.8,556.1C602.0,556.2 608.2,556.4 614.4,556.5C620.6,556.6 626.8,556.7 633.0,556.6C639.2,556.6 645.4,556.5 651.6,556.4C657.8,556.2 664.0,555.8 670.3,555.5C676.5,555.2 682.7,554.9 688.9,554.6C695.1,554.3 701.3,553.9 707.5,553.6C713.7,553.3 719.9,552.9 726.1,552.6C732.3,552.3 738.5,551.9 744.7,551.6C750.9,551.3 757.1,551.0 763.3,550.7C769.6,550.3 775.8,550.0 782.0,549.8C788.2,549.5 794.4,549.2 800.6,549.0C806.8,548.7 813.0,548.5 819.2,548.3C825.4,548.1 831.6,547.9 837.8,547.7C844.0,547.5 850.2,547.4 856.4,547.3C862.6,547.2 868.8,547.1 875.1,547.1C881.3,547.0 887.5,547.0 893.7,547.0C899.9,547.0 906.1,546.9 912.3,546.8C918.5,546.7 924.7,546.5 930.9,546.2C937.1,545.9 943.3,545.6 949.5,545.2C955.7,544.8 961.9,544.4 968.1,543.8C974.4,543.3 980.6,542.8 986.8,542.1C993.0,541.5 999.2,540.8 1005.4,540.1C1011.6,539.4 1017.8,538.6 1024.0,537.8C1030.2,536.9 1036.4,536.1 1042.6,535.1C1048.8,534.2 1055.0,533.2 1061.2,532.2C1067.4,531.2 1073.6,530.1 1079.9,529.0C1086.1,527.9 1092.3,526.2 1098.5,525.5C1104.7,524.7 1110.9,524.7 1117.1,524.2C1123.3,523.8 1129.5,523.4 1135.7,522.8C1141.9,522.3 1148.1,521.7 1154.3,521.0C1160.5,520.4 1166.7,519.7 1172.9,518.9C1179.2,518.2 1185.4,517.4 1191.6,516.7C1197.8,515.9 1204.0,515.1 1210.2,514.2C1216.4,513.4 1222.6,512.6 1228.8,511.7C1235.0,510.9 1241.2,510.0 1247.4,509.2C1253.6,508.4 1259.8,507.5 1266.0,506.7C1272.2,505.9 1278.4,505.0 1284.7,504.2C1290.9,503.4 1297.1,502.6 1303.3,501.7C1309.5,500.9 1315.7,500.1 1321.9,499.3C1328.1,498.5 1334.3,497.7 1340.5,496.9C1346.7,496.1 1352.9,495.3 1359.1,494.5C1365.3,493.6 1371.5,492.4 1377.7,491.9C1384.0,491.4 1390.2,491.3 1396.4,491.6C1402.6,491.9 1408.8,493.1 1415.0,493.7C1421.2,494.4 1427.4,495.1 1433.6,495.8C1439.8,496.5 1446.0,497.2 1452.2,497.8C1458.4,498.5 1464.6,499.2 1470.8,499.8C1477.0,500.5 1483.2,501.1 1489.5,501.8C1495.7,502.5 1501.9,503.1 1508.1,503.8C1514.3,504.5 1520.5,505.2 1526.7,505.8C1532.9,506.5 1539.1,507.2 1545.3,507.9C1551.5,508.5 1557.7,509.2 1563.9,509.9C1570.1,510.6 1576.3,511.2 1582.5,511.9C1588.8,512.7 1595.0,513.5 1601.2,514.4C1607.4,515.4 1613.6,516.0 1619.8,517.5C1626.0,519.0 1632.2,521.4 1638.4,523.5C1644.6,525.5 1650.8,527.7 1657.0,529.9C1663.2,532.1 1669.4,534.3 1675.6,536.5C1681.8,538.8 1688.0,541.0 1694.3,543.2C1700.5,545.3 1706.7,547.5 1712.9,549.6C1719.1,551.7 1725.3,553.7 1731.5,555.7C1737.7,557.6 1743.9,559.4 1750.1,561.1C1756.3,562.8 1762.5,564.3 1768.7,565.7C1774.9,567.1 1781.1,568.3 1787.3,569.3C1793.6,570.3 1799.8,571.2 1806.0,571.7C1812.2,572.2 1818.4,572.6 1824.6,572.4C1830.8,572.3 1837.0,571.7 1843.2,571.0C1849.4,570.2 1855.6,569.1 1861.8,567.9C1868.0,566.7 1874.2,565.2 1880.4,563.7C1886.6,562.3 1892.8,560.6 1899.1,559.1C1905.3,557.6 1911.5,555.3 1917.7,554.6C1923.9,553.9 1930.1,554.4 1936.3,555.0C1942.5,555.5 1948.7,556.9 1954.9,557.9C1961.1,558.9 1967.3,560.0 1973.5,561.0C1979.7,562.0 1985.9,563.0 1992.1,563.8C1998.4,564.6 2004.6,565.4 2010.8,565.8C2017.0,566.2 2023.2,566.0 2029.4,566.2C2035.6,566.4 2044.9,566.8 2048.0,566.9L2048,1020L0,1020Z" fill="url(#mr1)" filter="url(#mb1)"/><path id="Crest light 2" d="M0.0,583.0C3.1,582.4 12.4,581.0 18.6,579.7C24.8,578.5 31.0,577.0 37.2,575.5C43.4,574.0 49.6,572.4 55.9,570.8C62.1,569.2 68.3,567.5 74.5,566.0C80.7,564.5 86.9,562.0 93.1,561.9C99.3,561.7 105.5,563.8 111.7,564.9C117.9,566.0 124.1,567.2 130.3,568.5C136.5,569.7 142.7,571.0 148.9,572.2C155.2,573.4 161.4,574.6 167.6,575.6C173.8,576.5 180.0,577.4 186.2,578.0C192.4,578.6 198.6,578.9 204.8,579.2C211.0,579.4 217.2,579.4 223.4,579.5C229.6,579.6 235.8,579.6 242.0,579.6C248.2,579.7 254.4,579.7 260.7,579.7C266.9,579.6 273.1,579.6 279.3,579.6C285.5,579.5 291.7,579.4 297.9,579.3C304.1,579.3 310.3,579.1 316.5,579.0C322.7,578.9 328.9,578.8 335.1,578.6C341.3,578.5 347.5,578.3 353.7,578.1C360.0,578.0 366.2,577.8 372.4,577.6C378.6,577.3 384.8,577.1 391.0,576.9C397.2,576.7 403.4,576.4 409.6,576.1C415.8,575.9 422.0,575.6 428.2,575.4C434.4,575.1 440.6,574.8 446.8,574.4C453.0,574.0 459.2,573.4 465.5,572.7C471.7,572.0 477.9,571.2 484.1,570.4C490.3,569.6 496.5,568.6 502.7,567.7C508.9,566.7 515.1,565.7 521.3,564.7C527.5,563.7 533.7,562.6 539.9,561.6C546.1,560.7 552.3,559.7 558.5,558.7C564.8,557.8 571.0,556.5 577.2,556.1C583.4,555.6 589.6,556.1 595.8,556.1C602.0,556.2 608.2,556.4 614.4,556.5C620.6,556.6 626.8,556.7 633.0,556.6C639.2,556.6 645.4,556.5 651.6,556.4C657.8,556.2 664.0,555.8 670.3,555.5C676.5,555.2 682.7,554.9 688.9,554.6C695.1,554.3 701.3,553.9 707.5,553.6C713.7,553.3 719.9,552.9 726.1,552.6C732.3,552.3 738.5,551.9 744.7,551.6C750.9,551.3 757.1,551.0 763.3,550.7C769.6,550.3 775.8,550.0 782.0,549.8C788.2,549.5 794.4,549.2 800.6,549.0C806.8,548.7 813.0,548.5 819.2,548.3C825.4,548.1 831.6,547.9 837.8,547.7C844.0,547.5 850.2,547.4 856.4,547.3C862.6,547.2 868.8,547.1 875.1,547.1C881.3,547.0 887.5,547.0 893.7,547.0C899.9,547.0 906.1,546.9 912.3,546.8C918.5,546.7 924.7,546.5 930.9,546.2C937.1,545.9 943.3,545.6 949.5,545.2C955.7,544.8 961.9,544.4 968.1,543.8C974.4,543.3 980.6,542.8 986.8,542.1C993.0,541.5 999.2,540.8 1005.4,540.1C1011.6,539.4 1017.8,538.6 1024.0,537.8C1030.2,536.9 1036.4,536.1 1042.6,535.1C1048.8,534.2 1055.0,533.2 1061.2,532.2C1067.4,531.2 1073.6,530.1 1079.9,529.0C1086.1,527.9 1092.3,526.2 1098.5,525.5C1104.7,524.7 1110.9,524.7 1117.1,524.2C1123.3,523.8 1129.5,523.4 1135.7,522.8C1141.9,522.3 1148.1,521.7 1154.3,521.0C1160.5,520.4 1166.7,519.7 1172.9,518.9C1179.2,518.2 1185.4,517.4 1191.6,516.7C1197.8,515.9 1204.0,515.1 1210.2,514.2C1216.4,513.4 1222.6,512.6 1228.8,511.7C1235.0,510.9 1241.2,510.0 1247.4,509.2C1253.6,508.4 1259.8,507.5 1266.0,506.7C1272.2,505.9 1278.4,505.0 1284.7,504.2C1290.9,503.4 1297.1,502.6 1303.3,501.7C1309.5,500.9 1315.7,500.1 1321.9,499.3C1328.1,498.5 1334.3,497.7 1340.5,496.9C1346.7,496.1 1352.9,495.3 1359.1,494.5C1365.3,493.6 1371.5,492.4 1377.7,491.9C1384.0,491.4 1390.2,491.3 1396.4,491.6C1402.6,491.9 1408.8,493.1 1415.0,493.7C1421.2,494.4 1427.4,495.1 1433.6,495.8C1439.8,496.5 1446.0,497.2 1452.2,497.8C1458.4,498.5 1464.6,499.2 1470.8,499.8C1477.0,500.5 1483.2,501.1 1489.5,501.8C1495.7,502.5 1501.9,503.1 1508.1,503.8C1514.3,504.5 1520.5,505.2 1526.7,505.8C1532.9,506.5 1539.1,507.2 1545.3,507.9C1551.5,508.5 1557.7,509.2 1563.9,509.9C1570.1,510.6 1576.3,511.2 1582.5,511.9C1588.8,512.7 1595.0,513.5 1601.2,514.4C1607.4,515.4 1613.6,516.0 1619.8,517.5C1626.0,519.0 1632.2,521.4 1638.4,523.5C1644.6,525.5 1650.8,527.7 1657.0,529.9C1663.2,532.1 1669.4,534.3 1675.6,536.5C1681.8,538.8 1688.0,541.0 1694.3,543.2C1700.5,545.3 1706.7,547.5 1712.9,549.6C1719.1,551.7 1725.3,553.7 1731.5,555.7C1737.7,557.6 1743.9,559.4 1750.1,561.1C1756.3,562.8 1762.5,564.3 1768.7,565.7C1774.9,567.1 1781.1,568.3 1787.3,569.3C1793.6,570.3 1799.8,571.2 1806.0,571.7C1812.2,572.2 1818.4,572.6 1824.6,572.4C1830.8,572.3 1837.0,571.7 1843.2,571.0C1849.4,570.2 1855.6,569.1 1861.8,567.9C1868.0,566.7 1874.2,565.2 1880.4,563.7C1886.6,562.3 1892.8,560.6 1899.1,559.1C1905.3,557.6 1911.5,555.3 1917.7,554.6C1923.9,553.9 1930.1,554.4 1936.3,555.0C1942.5,555.5 1948.7,556.9 1954.9,557.9C1961.1,558.9 1967.3,560.0 1973.5,561.0C1979.7,562.0 1985.9,563.0 1992.1,563.8C1998.4,564.6 2004.6,565.4 2010.8,565.8C2017.0,566.2 2023.2,566.0 2029.4,566.2C2035.6,566.4 2044.9,566.8 2048.0,566.9" fill="none" stroke="#ebd4bd" stroke-width="3.6" stroke-linecap="round" opacity="0.255" filter="url(#mb1)"/><ellipse id="Mist 2" cx="1498.7" cy="609.1" rx="1269.8" ry="64.4" fill="url(#mv)" opacity="0.535"/></g><g id="Range 3"><path d="M0.0,684.6C3.1,683.5 12.4,680.7 18.6,678.3C24.8,675.9 31.0,673.1 37.2,670.1C43.4,667.2 49.6,663.9 55.9,660.7C62.1,657.5 68.3,654.1 74.5,650.8C80.7,647.5 86.9,644.2 93.1,641.1C99.3,638.0 105.5,634.8 111.7,632.2C117.9,629.7 124.1,627.3 130.3,625.6C136.5,624.0 142.7,623.1 148.9,622.6C155.2,622.1 161.4,622.1 167.6,622.5C173.8,622.9 180.0,624.2 186.2,625.0C192.4,625.7 198.6,626.1 204.8,627.2C211.0,628.3 217.2,630.0 223.4,631.7C229.6,633.4 235.8,635.4 242.0,637.2C248.2,639.0 254.4,640.4 260.7,642.5C266.9,644.6 273.1,647.5 279.3,649.8C285.5,652.2 291.7,654.5 297.9,656.7C304.1,658.8 310.3,660.9 316.5,662.8C322.7,664.6 328.9,666.4 335.1,667.9C341.3,669.4 347.5,670.6 353.7,671.7C360.0,672.8 366.2,673.6 372.4,674.4C378.6,675.1 384.8,675.8 391.0,676.3C397.2,676.8 403.4,677.2 409.6,677.5C415.8,677.8 422.0,677.9 428.2,678.3C434.4,678.6 440.6,678.7 446.8,679.6C453.0,680.6 459.2,682.6 465.5,684.1C471.7,685.6 477.9,687.3 484.1,688.9C490.3,690.5 496.5,692.1 502.7,693.7C508.9,695.2 515.1,696.8 521.3,698.2C527.5,699.7 533.7,701.0 539.9,702.2C546.1,703.4 552.3,704.5 558.5,705.3C564.8,706.1 571.0,706.8 577.2,707.1C583.4,707.5 589.6,707.5 595.8,707.4C602.0,707.4 608.2,707.0 614.4,706.6C620.6,706.3 626.8,705.7 633.0,705.2C639.2,704.7 645.4,704.1 651.6,703.7C657.8,703.4 664.0,702.7 670.3,703.2C676.5,703.7 682.7,705.6 688.9,706.8C695.1,708.0 701.3,709.3 707.5,710.4C713.7,711.6 719.9,712.7 726.1,713.7C732.3,714.6 738.5,715.5 744.7,716.1C750.9,716.7 757.1,717.0 763.3,717.2C769.6,717.4 775.8,717.3 782.0,717.3C788.2,717.3 794.4,717.3 800.6,717.3C806.8,717.3 813.0,717.3 819.2,717.3C825.4,717.3 831.6,717.3 837.8,717.3C844.0,717.3 850.2,717.3 856.4,717.3C862.6,717.2 868.8,717.2 875.1,717.2C881.3,717.1 887.5,717.1 893.7,717.1C899.9,717.0 906.1,716.9 912.3,716.9C918.5,716.8 924.7,716.7 930.9,716.5C937.1,716.4 943.3,716.3 949.5,716.1C955.7,716.0 961.9,715.8 968.1,715.5C974.4,715.3 980.6,715.0 986.8,714.6C993.0,714.3 999.2,713.9 1005.4,713.4C1011.6,713.0 1017.8,712.5 1024.0,712.0C1030.2,711.5 1036.4,710.9 1042.6,710.4C1048.8,709.8 1055.0,709.3 1061.2,708.8C1067.4,708.2 1073.6,707.7 1079.9,707.2C1086.1,706.7 1092.3,706.2 1098.5,705.8C1104.7,705.4 1110.9,705.0 1117.1,704.6C1123.3,704.3 1129.5,704.0 1135.7,703.8C1141.9,703.6 1148.1,703.4 1154.3,703.3C1160.5,703.2 1166.7,703.3 1172.9,703.2C1179.2,703.1 1185.4,703.0 1191.6,702.8C1197.8,702.6 1204.0,702.3 1210.2,701.9C1216.4,701.6 1222.6,701.2 1228.8,700.7C1235.0,700.3 1241.2,699.7 1247.4,699.2C1253.6,698.7 1259.8,698.1 1266.0,697.5C1272.2,696.9 1278.4,696.2 1284.7,695.6C1290.9,694.9 1297.1,694.3 1303.3,693.6C1309.5,693.0 1315.7,692.3 1321.9,691.7C1328.1,691.1 1334.3,690.4 1340.5,689.9C1346.7,689.4 1352.9,688.7 1359.1,688.7C1365.3,688.7 1371.5,689.7 1377.7,690.1C1384.0,690.4 1390.2,690.7 1396.4,691.0C1402.6,691.3 1408.8,691.4 1415.0,691.7C1421.2,691.9 1427.4,692.0 1433.6,692.2C1439.8,692.4 1446.0,692.6 1452.2,692.8C1458.4,693.0 1464.6,693.2 1470.8,693.5C1477.0,693.7 1483.2,693.7 1489.5,694.3C1495.7,694.8 1501.9,696.1 1508.1,696.9C1514.3,697.7 1520.5,698.4 1526.7,699.0C1532.9,699.6 1539.1,700.1 1545.3,700.4C1551.5,700.8 1557.7,700.9 1563.9,700.9C1570.1,700.9 1576.3,700.8 1582.5,700.6C1588.8,700.4 1595.0,700.1 1601.2,699.8C1607.4,699.5 1613.6,699.0 1619.8,698.7C1626.0,698.4 1632.2,698.0 1638.4,698.0C1644.6,697.9 1650.8,698.3 1657.0,698.4C1663.2,698.5 1669.4,698.6 1675.6,698.7C1681.8,698.8 1688.0,698.9 1694.3,698.9C1700.5,698.9 1706.7,698.9 1712.9,698.9C1719.1,698.8 1725.3,698.7 1731.5,698.5C1737.7,698.3 1743.9,698.0 1750.1,697.7C1756.3,697.3 1762.5,696.9 1768.7,696.4C1774.9,695.9 1781.1,695.3 1787.3,694.7C1793.6,694.1 1799.8,693.4 1806.0,692.8C1812.2,692.1 1818.4,691.4 1824.6,690.7C1830.8,690.0 1837.0,689.2 1843.2,688.5C1849.4,687.8 1855.6,687.1 1861.8,686.4C1868.0,685.7 1874.2,685.0 1880.4,684.4C1886.6,683.7 1892.8,683.1 1899.1,682.5C1905.3,681.9 1911.5,681.4 1917.7,680.9C1923.9,680.3 1930.1,679.9 1936.3,679.5C1942.5,679.1 1948.7,678.7 1954.9,678.4C1961.1,678.1 1967.3,677.9 1973.5,677.8C1979.7,677.6 1985.9,677.6 1992.1,677.5C1998.4,677.5 2004.6,677.4 2010.8,677.5C2017.0,677.5 2023.2,677.5 2029.4,677.6C2035.6,677.7 2044.9,677.9 2048.0,677.9L2048,1020L0,1020Z" fill="url(#mr2)" filter="url(#mb2)"/><path id="Crest light 3" d="M0.0,684.6C3.1,683.5 12.4,680.7 18.6,678.3C24.8,675.9 31.0,673.1 37.2,670.1C43.4,667.2 49.6,663.9 55.9,660.7C62.1,657.5 68.3,654.1 74.5,650.8C80.7,647.5 86.9,644.2 93.1,641.1C99.3,638.0 105.5,634.8 111.7,632.2C117.9,629.7 124.1,627.3 130.3,625.6C136.5,624.0 142.7,623.1 148.9,622.6C155.2,622.1 161.4,622.1 167.6,622.5C173.8,622.9 180.0,624.2 186.2,625.0C192.4,625.7 198.6,626.1 204.8,627.2C211.0,628.3 217.2,630.0 223.4,631.7C229.6,633.4 235.8,635.4 242.0,637.2C248.2,639.0 254.4,640.4 260.7,642.5C266.9,644.6 273.1,647.5 279.3,649.8C285.5,652.2 291.7,654.5 297.9,656.7C304.1,658.8 310.3,660.9 316.5,662.8C322.7,664.6 328.9,666.4 335.1,667.9C341.3,669.4 347.5,670.6 353.7,671.7C360.0,672.8 366.2,673.6 372.4,674.4C378.6,675.1 384.8,675.8 391.0,676.3C397.2,676.8 403.4,677.2 409.6,677.5C415.8,677.8 422.0,677.9 428.2,678.3C434.4,678.6 440.6,678.7 446.8,679.6C453.0,680.6 459.2,682.6 465.5,684.1C471.7,685.6 477.9,687.3 484.1,688.9C490.3,690.5 496.5,692.1 502.7,693.7C508.9,695.2 515.1,696.8 521.3,698.2C527.5,699.7 533.7,701.0 539.9,702.2C546.1,703.4 552.3,704.5 558.5,705.3C564.8,706.1 571.0,706.8 577.2,707.1C583.4,707.5 589.6,707.5 595.8,707.4C602.0,707.4 608.2,707.0 614.4,706.6C620.6,706.3 626.8,705.7 633.0,705.2C639.2,704.7 645.4,704.1 651.6,703.7C657.8,703.4 664.0,702.7 670.3,703.2C676.5,703.7 682.7,705.6 688.9,706.8C695.1,708.0 701.3,709.3 707.5,710.4C713.7,711.6 719.9,712.7 726.1,713.7C732.3,714.6 738.5,715.5 744.7,716.1C750.9,716.7 757.1,717.0 763.3,717.2C769.6,717.4 775.8,717.3 782.0,717.3C788.2,717.3 794.4,717.3 800.6,717.3C806.8,717.3 813.0,717.3 819.2,717.3C825.4,717.3 831.6,717.3 837.8,717.3C844.0,717.3 850.2,717.3 856.4,717.3C862.6,717.2 868.8,717.2 875.1,717.2C881.3,717.1 887.5,717.1 893.7,717.1C899.9,717.0 906.1,716.9 912.3,716.9C918.5,716.8 924.7,716.7 930.9,716.5C937.1,716.4 943.3,716.3 949.5,716.1C955.7,716.0 961.9,715.8 968.1,715.5C974.4,715.3 980.6,715.0 986.8,714.6C993.0,714.3 999.2,713.9 1005.4,713.4C1011.6,713.0 1017.8,712.5 1024.0,712.0C1030.2,711.5 1036.4,710.9 1042.6,710.4C1048.8,709.8 1055.0,709.3 1061.2,708.8C1067.4,708.2 1073.6,707.7 1079.9,707.2C1086.1,706.7 1092.3,706.2 1098.5,705.8C1104.7,705.4 1110.9,705.0 1117.1,704.6C1123.3,704.3 1129.5,704.0 1135.7,703.8C1141.9,703.6 1148.1,703.4 1154.3,703.3C1160.5,703.2 1166.7,703.3 1172.9,703.2C1179.2,703.1 1185.4,703.0 1191.6,702.8C1197.8,702.6 1204.0,702.3 1210.2,701.9C1216.4,701.6 1222.6,701.2 1228.8,700.7C1235.0,700.3 1241.2,699.7 1247.4,699.2C1253.6,698.7 1259.8,698.1 1266.0,697.5C1272.2,696.9 1278.4,696.2 1284.7,695.6C1290.9,694.9 1297.1,694.3 1303.3,693.6C1309.5,693.0 1315.7,692.3 1321.9,691.7C1328.1,691.1 1334.3,690.4 1340.5,689.9C1346.7,689.4 1352.9,688.7 1359.1,688.7C1365.3,688.7 1371.5,689.7 1377.7,690.1C1384.0,690.4 1390.2,690.7 1396.4,691.0C1402.6,691.3 1408.8,691.4 1415.0,691.7C1421.2,691.9 1427.4,692.0 1433.6,692.2C1439.8,692.4 1446.0,692.6 1452.2,692.8C1458.4,693.0 1464.6,693.2 1470.8,693.5C1477.0,693.7 1483.2,693.7 1489.5,694.3C1495.7,694.8 1501.9,696.1 1508.1,696.9C1514.3,697.7 1520.5,698.4 1526.7,699.0C1532.9,699.6 1539.1,700.1 1545.3,700.4C1551.5,700.8 1557.7,700.9 1563.9,700.9C1570.1,700.9 1576.3,700.8 1582.5,700.6C1588.8,700.4 1595.0,700.1 1601.2,699.8C1607.4,699.5 1613.6,699.0 1619.8,698.7C1626.0,698.4 1632.2,698.0 1638.4,698.0C1644.6,697.9 1650.8,698.3 1657.0,698.4C1663.2,698.5 1669.4,698.6 1675.6,698.7C1681.8,698.8 1688.0,698.9 1694.3,698.9C1700.5,698.9 1706.7,698.9 1712.9,698.9C1719.1,698.8 1725.3,698.7 1731.5,698.5C1737.7,698.3 1743.9,698.0 1750.1,697.7C1756.3,697.3 1762.5,696.9 1768.7,696.4C1774.9,695.9 1781.1,695.3 1787.3,694.7C1793.6,694.1 1799.8,693.4 1806.0,692.8C1812.2,692.1 1818.4,691.4 1824.6,690.7C1830.8,690.0 1837.0,689.2 1843.2,688.5C1849.4,687.8 1855.6,687.1 1861.8,686.4C1868.0,685.7 1874.2,685.0 1880.4,684.4C1886.6,683.7 1892.8,683.1 1899.1,682.5C1905.3,681.9 1911.5,681.4 1917.7,680.9C1923.9,680.3 1930.1,679.9 1936.3,679.5C1942.5,679.1 1948.7,678.7 1954.9,678.4C1961.1,678.1 1967.3,677.9 1973.5,677.8C1979.7,677.6 1985.9,677.6 1992.1,677.5C1998.4,677.5 2004.6,677.4 2010.8,677.5C2017.0,677.5 2023.2,677.5 2029.4,677.6C2035.6,677.7 2044.9,677.9 2048.0,677.9" fill="none" stroke="#e3cdba" stroke-width="3.6" stroke-linecap="round" opacity="0.311" filter="url(#mb2)"/><ellipse id="Mist 3" cx="548.3" cy="734.5" rx="1269.8" ry="75.2" fill="url(#mv)" opacity="0.449"/></g><g id="Range 4"><path d="M0.0,734.8C3.1,734.9 12.4,735.2 18.6,735.6C24.8,736.1 31.0,736.7 37.2,737.5C43.4,738.2 49.6,739.1 55.9,740.0C62.1,741.0 68.3,742.1 74.5,743.1C80.7,744.2 86.9,745.4 93.1,746.4C99.3,747.5 105.5,748.6 111.7,749.4C117.9,750.3 124.1,751.1 130.3,751.6C136.5,752.1 142.7,752.5 148.9,752.3C155.2,752.2 161.4,751.0 167.6,750.5C173.8,750.0 180.0,750.1 186.2,749.4C192.4,748.7 198.6,747.5 204.8,746.4C211.0,745.2 217.2,743.8 223.4,742.6C229.6,741.3 235.8,740.1 242.0,739.1C248.2,738.2 254.4,737.4 260.7,736.8C266.9,736.3 273.1,735.3 279.3,736.0C285.5,736.7 291.7,739.4 297.9,741.0C304.1,742.7 310.3,744.6 316.5,745.9C322.7,747.1 328.9,747.7 335.1,748.5C341.3,749.3 347.5,749.9 353.7,750.5C360.0,751.2 366.2,751.8 372.4,752.4C378.6,753.0 384.8,753.5 391.0,754.0C397.2,754.6 403.4,755.1 409.6,755.6C415.8,756.1 422.0,756.5 428.2,757.0C434.4,757.4 440.6,757.8 446.8,758.2C453.0,758.6 459.2,759.0 465.5,759.4C471.7,759.8 477.9,760.1 484.1,760.5C490.3,760.8 496.5,761.3 502.7,761.4C508.9,761.6 515.1,761.5 521.3,761.3C527.5,761.1 533.7,760.2 539.9,760.0C546.1,759.8 552.3,759.4 558.5,760.1C564.8,760.8 571.0,762.8 577.2,764.3C583.4,765.8 589.6,767.5 595.8,769.2C602.0,770.9 608.2,772.8 614.4,774.4C620.6,776.1 626.8,777.8 633.0,779.3C639.2,780.8 645.4,782.3 651.6,783.3C657.8,784.3 664.0,785.1 670.3,785.2C676.5,785.3 682.7,784.8 688.9,784.0C695.1,783.1 701.3,781.6 707.5,780.1C713.7,778.6 719.9,776.8 726.1,775.2C732.3,773.5 738.5,771.7 744.7,770.2C750.9,768.8 757.1,766.3 763.3,766.3C769.6,766.3 775.8,768.6 782.0,770.4C788.2,772.2 794.4,774.9 800.6,777.1C806.8,779.2 813.0,781.5 819.2,783.3C825.4,785.1 831.6,786.8 837.8,787.9C844.0,789.0 850.2,789.6 856.4,790.0C862.6,790.3 868.8,790.3 875.1,790.2C881.3,790.1 887.5,789.7 893.7,789.3C899.9,788.9 906.1,788.4 912.3,788.0C918.5,787.6 924.7,786.9 930.9,786.8C937.1,786.6 943.3,786.2 949.5,787.1C955.7,788.0 961.9,790.5 968.1,792.1C974.4,793.7 980.6,795.3 986.8,796.7C993.0,798.1 999.2,799.3 1005.4,800.2C1011.6,801.2 1017.8,801.7 1024.0,802.2C1030.2,802.8 1036.4,803.0 1042.6,803.3C1048.8,803.6 1055.0,803.7 1061.2,803.8C1067.4,803.9 1073.6,804.0 1079.9,803.9C1086.1,803.9 1092.3,803.8 1098.5,803.7C1104.7,803.6 1110.9,803.4 1117.1,803.3C1123.3,803.1 1129.5,802.9 1135.7,802.7C1141.9,802.5 1148.1,802.3 1154.3,802.2C1160.5,802.0 1166.7,801.8 1172.9,801.7C1179.2,801.5 1185.4,801.2 1191.6,801.4C1197.8,801.5 1204.0,801.6 1210.2,802.4C1216.4,803.3 1222.6,804.9 1228.8,806.2C1235.0,807.5 1241.2,808.8 1247.4,810.2C1253.6,811.6 1259.8,813.0 1266.0,814.4C1272.2,815.8 1278.4,817.2 1284.7,818.6C1290.9,819.9 1297.1,821.3 1303.3,822.5C1309.5,823.7 1315.7,824.9 1321.9,825.9C1328.1,826.9 1334.3,827.8 1340.5,828.6C1346.7,829.3 1352.9,830.0 1359.1,830.3C1365.3,830.6 1371.5,830.8 1377.7,830.5C1384.0,830.2 1390.2,829.4 1396.4,828.6C1402.6,827.8 1408.8,826.6 1415.0,825.5C1421.2,824.5 1427.4,823.1 1433.6,822.4C1439.8,821.6 1446.0,820.4 1452.2,821.0C1458.4,821.5 1464.6,824.1 1470.8,825.7C1477.0,827.3 1483.2,829.0 1489.5,830.5C1495.7,832.1 1501.9,833.6 1508.1,834.8C1514.3,836.0 1520.5,837.0 1526.7,837.6C1532.9,838.1 1539.1,838.1 1545.3,838.3C1551.5,838.5 1557.7,838.6 1563.9,838.8C1570.1,839.1 1576.3,839.4 1582.5,839.7C1588.8,840.0 1595.0,840.3 1601.2,840.6C1607.4,841.0 1613.6,841.3 1619.8,841.6C1626.0,841.9 1632.2,842.3 1638.4,842.5C1644.6,842.8 1650.8,843.0 1657.0,843.1C1663.2,843.2 1669.4,843.3 1675.6,843.3C1681.8,843.2 1688.0,843.1 1694.3,842.8C1700.5,842.5 1706.7,842.3 1712.9,841.5C1719.1,840.7 1725.3,839.6 1731.5,838.0C1737.7,836.4 1743.9,834.3 1750.1,831.9C1756.3,829.5 1762.5,826.6 1768.7,823.7C1774.9,820.8 1781.1,817.5 1787.3,814.4C1793.6,811.2 1799.8,807.9 1806.0,804.9C1812.2,801.8 1818.4,798.2 1824.6,795.9C1830.8,793.5 1837.0,792.0 1843.2,790.6C1849.4,789.3 1855.6,789.0 1861.8,787.8C1868.0,786.7 1874.2,785.3 1880.4,783.9C1886.6,782.4 1892.8,780.4 1899.1,779.0C1905.3,777.6 1911.5,776.4 1917.7,775.3C1923.9,774.3 1930.1,773.4 1936.3,772.8C1942.5,772.1 1948.7,771.7 1954.9,771.4C1961.1,771.1 1967.3,771.0 1973.5,771.0C1979.7,771.0 1985.9,771.1 1992.1,771.3C1998.4,771.4 2004.6,771.7 2010.8,771.9C2017.0,772.1 2023.2,772.3 2029.4,772.3C2035.6,772.3 2044.9,772.1 2048.0,772.0L2048,1020L0,1020Z" fill="url(#mr3)"/><path id="Crest light 4" d="M0.0,734.8C3.1,734.9 12.4,735.2 18.6,735.6C24.8,736.1 31.0,736.7 37.2,737.5C43.4,738.2 49.6,739.1 55.9,740.0C62.1,741.0 68.3,742.1 74.5,743.1C80.7,744.2 86.9,745.4 93.1,746.4C99.3,747.5 105.5,748.6 111.7,749.4C117.9,750.3 124.1,751.1 130.3,751.6C136.5,752.1 142.7,752.5 148.9,752.3C155.2,752.2 161.4,751.0 167.6,750.5C173.8,750.0 180.0,750.1 186.2,749.4C192.4,748.7 198.6,747.5 204.8,746.4C211.0,745.2 217.2,743.8 223.4,742.6C229.6,741.3 235.8,740.1 242.0,739.1C248.2,738.2 254.4,737.4 260.7,736.8C266.9,736.3 273.1,735.3 279.3,736.0C285.5,736.7 291.7,739.4 297.9,741.0C304.1,742.7 310.3,744.6 316.5,745.9C322.7,747.1 328.9,747.7 335.1,748.5C341.3,749.3 347.5,749.9 353.7,750.5C360.0,751.2 366.2,751.8 372.4,752.4C378.6,753.0 384.8,753.5 391.0,754.0C397.2,754.6 403.4,755.1 409.6,755.6C415.8,756.1 422.0,756.5 428.2,757.0C434.4,757.4 440.6,757.8 446.8,758.2C453.0,758.6 459.2,759.0 465.5,759.4C471.7,759.8 477.9,760.1 484.1,760.5C490.3,760.8 496.5,761.3 502.7,761.4C508.9,761.6 515.1,761.5 521.3,761.3C527.5,761.1 533.7,760.2 539.9,760.0C546.1,759.8 552.3,759.4 558.5,760.1C564.8,760.8 571.0,762.8 577.2,764.3C583.4,765.8 589.6,767.5 595.8,769.2C602.0,770.9 608.2,772.8 614.4,774.4C620.6,776.1 626.8,777.8 633.0,779.3C639.2,780.8 645.4,782.3 651.6,783.3C657.8,784.3 664.0,785.1 670.3,785.2C676.5,785.3 682.7,784.8 688.9,784.0C695.1,783.1 701.3,781.6 707.5,780.1C713.7,778.6 719.9,776.8 726.1,775.2C732.3,773.5 738.5,771.7 744.7,770.2C750.9,768.8 757.1,766.3 763.3,766.3C769.6,766.3 775.8,768.6 782.0,770.4C788.2,772.2 794.4,774.9 800.6,777.1C806.8,779.2 813.0,781.5 819.2,783.3C825.4,785.1 831.6,786.8 837.8,787.9C844.0,789.0 850.2,789.6 856.4,790.0C862.6,790.3 868.8,790.3 875.1,790.2C881.3,790.1 887.5,789.7 893.7,789.3C899.9,788.9 906.1,788.4 912.3,788.0C918.5,787.6 924.7,786.9 930.9,786.8C937.1,786.6 943.3,786.2 949.5,787.1C955.7,788.0 961.9,790.5 968.1,792.1C974.4,793.7 980.6,795.3 986.8,796.7C993.0,798.1 999.2,799.3 1005.4,800.2C1011.6,801.2 1017.8,801.7 1024.0,802.2C1030.2,802.8 1036.4,803.0 1042.6,803.3C1048.8,803.6 1055.0,803.7 1061.2,803.8C1067.4,803.9 1073.6,804.0 1079.9,803.9C1086.1,803.9 1092.3,803.8 1098.5,803.7C1104.7,803.6 1110.9,803.4 1117.1,803.3C1123.3,803.1 1129.5,802.9 1135.7,802.7C1141.9,802.5 1148.1,802.3 1154.3,802.2C1160.5,802.0 1166.7,801.8 1172.9,801.7C1179.2,801.5 1185.4,801.2 1191.6,801.4C1197.8,801.5 1204.0,801.6 1210.2,802.4C1216.4,803.3 1222.6,804.9 1228.8,806.2C1235.0,807.5 1241.2,808.8 1247.4,810.2C1253.6,811.6 1259.8,813.0 1266.0,814.4C1272.2,815.8 1278.4,817.2 1284.7,818.6C1290.9,819.9 1297.1,821.3 1303.3,822.5C1309.5,823.7 1315.7,824.9 1321.9,825.9C1328.1,826.9 1334.3,827.8 1340.5,828.6C1346.7,829.3 1352.9,830.0 1359.1,830.3C1365.3,830.6 1371.5,830.8 1377.7,830.5C1384.0,830.2 1390.2,829.4 1396.4,828.6C1402.6,827.8 1408.8,826.6 1415.0,825.5C1421.2,824.5 1427.4,823.1 1433.6,822.4C1439.8,821.6 1446.0,820.4 1452.2,821.0C1458.4,821.5 1464.6,824.1 1470.8,825.7C1477.0,827.3 1483.2,829.0 1489.5,830.5C1495.7,832.1 1501.9,833.6 1508.1,834.8C1514.3,836.0 1520.5,837.0 1526.7,837.6C1532.9,838.1 1539.1,838.1 1545.3,838.3C1551.5,838.5 1557.7,838.6 1563.9,838.8C1570.1,839.1 1576.3,839.4 1582.5,839.7C1588.8,840.0 1595.0,840.3 1601.2,840.6C1607.4,841.0 1613.6,841.3 1619.8,841.6C1626.0,841.9 1632.2,842.3 1638.4,842.5C1644.6,842.8 1650.8,843.0 1657.0,843.1C1663.2,843.2 1669.4,843.3 1675.6,843.3C1681.8,843.2 1688.0,843.1 1694.3,842.8C1700.5,842.5 1706.7,842.3 1712.9,841.5C1719.1,840.7 1725.3,839.6 1731.5,838.0C1737.7,836.4 1743.9,834.3 1750.1,831.9C1756.3,829.5 1762.5,826.6 1768.7,823.7C1774.9,820.8 1781.1,817.5 1787.3,814.4C1793.6,811.2 1799.8,807.9 1806.0,804.9C1812.2,801.8 1818.4,798.2 1824.6,795.9C1830.8,793.5 1837.0,792.0 1843.2,790.6C1849.4,789.3 1855.6,789.0 1861.8,787.8C1868.0,786.7 1874.2,785.3 1880.4,783.9C1886.6,782.4 1892.8,780.4 1899.1,779.0C1905.3,777.6 1911.5,776.4 1917.7,775.3C1923.9,774.3 1930.1,773.4 1936.3,772.8C1942.5,772.1 1948.7,771.7 1954.9,771.4C1961.1,771.1 1967.3,771.0 1973.5,771.0C1979.7,771.0 1985.9,771.1 1992.1,771.3C1998.4,771.4 2004.6,771.7 2010.8,771.9C2017.0,772.1 2023.2,772.3 2029.4,772.3C2035.6,772.3 2044.9,772.1 2048.0,772.0" fill="none" stroke="#d9c4b5" stroke-width="3.6" stroke-linecap="round" opacity="0.366"/><ellipse id="Mist 4" cx="1394.7" cy="873.3" rx="1269.8" ry="83.3" fill="url(#mv)" opacity="0.364"/></g><g id="Range 5" opacity="0.980"><path d="M0.0,875.4C3.1,874.2 12.4,871.2 18.6,868.6C24.8,865.9 31.0,862.6 37.2,859.4C43.4,856.3 49.6,852.8 55.9,849.6C62.1,846.4 68.3,842.1 74.5,840.3C80.7,838.5 86.9,838.2 93.1,838.6C99.3,839.1 105.5,840.7 111.7,842.8C117.9,844.9 124.1,848.7 130.3,851.2C136.5,853.6 142.7,855.6 148.9,857.7C155.2,859.7 161.4,861.7 167.6,863.7C173.8,865.6 180.0,867.5 186.2,869.4C192.4,871.2 198.6,873.1 204.8,874.8C211.0,876.6 217.2,878.3 223.4,879.9C229.6,881.5 235.8,883.1 242.0,884.6C248.2,886.1 254.4,887.5 260.7,888.8C266.9,890.1 273.1,891.2 279.3,892.5C285.5,893.7 291.7,894.9 297.9,896.1C304.1,897.3 310.3,898.2 316.5,899.6C322.7,900.9 328.9,902.2 335.1,904.1C341.3,906.1 347.5,908.8 353.7,911.3C360.0,913.8 366.2,916.5 372.4,919.2C378.6,921.8 384.8,924.6 391.0,927.3C397.2,929.9 403.4,932.6 409.6,935.1C415.8,937.6 422.0,940.0 428.2,942.1C434.4,944.2 440.6,946.1 446.8,947.8C453.0,949.5 459.2,950.9 465.5,952.3C471.7,953.7 477.9,954.9 484.1,956.1C490.3,957.2 496.5,958.2 502.7,959.1C508.9,960.1 515.1,960.9 521.3,961.6C527.5,962.4 533.7,963.0 539.9,963.6C546.1,964.1 552.3,964.6 558.5,965.0C564.8,965.4 571.0,965.7 577.2,965.9C583.4,966.1 589.6,966.4 595.8,966.3C602.0,966.3 608.2,966.1 614.4,965.6C620.6,965.0 626.8,964.2 633.0,963.1C639.2,962.0 645.4,960.6 651.6,959.1C657.8,957.6 664.0,955.8 670.3,954.0C676.5,952.1 682.7,950.0 688.9,947.9C695.1,945.8 701.3,943.6 707.5,941.4C713.7,939.1 719.9,936.8 726.1,934.6C732.3,932.3 738.5,930.0 744.7,927.8C750.9,925.6 757.1,923.6 763.3,921.2C769.6,918.9 775.8,915.8 782.0,913.8C788.2,911.8 794.4,910.3 800.6,909.2C806.8,908.2 813.0,907.1 819.2,907.6C825.4,908.1 831.6,910.4 837.8,912.1C844.0,913.7 850.2,915.8 856.4,917.4C862.6,919.0 868.8,920.7 875.1,921.9C881.3,923.0 887.5,924.0 893.7,924.3C899.9,924.6 906.1,924.5 912.3,923.6C918.5,922.7 924.7,920.8 930.9,918.7C937.1,916.7 943.3,913.8 949.5,911.2C955.7,908.5 961.9,905.4 968.1,902.7C974.4,900.0 980.6,895.7 986.8,895.0C993.0,894.2 999.2,897.0 1005.4,898.3C1011.6,899.7 1017.8,901.7 1024.0,903.2C1030.2,904.6 1036.4,906.2 1042.6,907.0C1048.8,907.8 1055.0,908.0 1061.2,907.9C1067.4,907.8 1073.6,907.0 1079.9,906.4C1086.1,905.8 1092.3,905.0 1098.5,904.2C1104.7,903.4 1110.9,902.6 1117.1,901.7C1123.3,900.9 1129.5,899.9 1135.7,899.1C1141.9,898.2 1148.1,897.3 1154.3,896.5C1160.5,895.7 1166.7,894.9 1172.9,894.3C1179.2,893.6 1185.4,892.9 1191.6,892.4C1197.8,891.9 1204.0,891.6 1210.2,891.1C1216.4,890.7 1222.6,890.6 1228.8,889.8C1235.0,889.0 1241.2,887.8 1247.4,886.4C1253.6,885.0 1259.8,883.1 1266.0,881.6C1272.2,880.0 1278.4,877.5 1284.7,877.2C1290.9,876.9 1297.1,879.0 1303.3,879.9C1309.5,880.8 1315.7,881.8 1321.9,882.5C1328.1,883.3 1334.3,884.1 1340.5,884.4C1346.7,884.7 1352.9,884.8 1359.1,884.4C1365.3,883.9 1371.5,882.6 1377.7,881.7C1384.0,880.8 1390.2,879.7 1396.4,878.7C1402.6,877.8 1408.8,876.9 1415.0,876.0C1421.2,875.2 1427.4,874.3 1433.6,873.6C1439.8,872.9 1446.0,872.3 1452.2,872.0C1458.4,871.7 1464.6,872.0 1470.8,871.8C1477.0,871.7 1483.2,871.1 1489.5,871.3C1495.7,871.5 1501.9,872.1 1508.1,872.8C1514.3,873.6 1520.5,875.1 1526.7,875.9C1532.9,876.7 1539.1,877.2 1545.3,877.7C1551.5,878.1 1557.7,878.4 1563.9,878.8C1570.1,879.2 1576.3,879.5 1582.5,880.0C1588.8,880.6 1595.0,881.1 1601.2,881.9C1607.4,882.7 1613.6,883.6 1619.8,884.8C1626.0,886.0 1632.2,887.3 1638.4,889.0C1644.6,890.6 1650.8,892.4 1657.0,894.5C1663.2,896.6 1669.4,899.0 1675.6,901.5C1681.8,904.1 1688.0,906.9 1694.3,909.8C1700.5,912.6 1706.7,915.6 1712.9,918.6C1719.1,921.7 1725.3,924.8 1731.5,927.8C1737.7,930.8 1743.9,933.9 1750.1,936.9C1756.3,939.8 1762.5,942.8 1768.7,945.5C1774.9,948.3 1781.1,951.0 1787.3,953.4C1793.6,955.8 1799.8,958.1 1806.0,960.2C1812.2,962.2 1818.4,964.0 1824.6,965.5C1830.8,967.1 1837.0,968.3 1843.2,969.6C1849.4,970.8 1855.6,972.2 1861.8,973.3C1868.0,974.4 1874.2,975.5 1880.4,976.3C1886.6,977.1 1892.8,977.8 1899.1,978.3C1905.3,978.8 1911.5,979.1 1917.7,979.3C1923.9,979.4 1930.1,979.4 1936.3,979.2C1942.5,978.9 1948.7,978.5 1954.9,977.7C1961.1,977.0 1967.3,976.0 1973.5,974.7C1979.7,973.3 1985.9,972.1 1992.1,969.4C1998.4,966.8 2004.6,963.0 2010.8,958.7C2017.0,954.4 2023.2,948.7 2029.4,943.4C2035.6,938.0 2044.9,929.3 2048.0,926.5L2048,1020L0,1020Z" fill="url(#mr4)"/><path id="Crest light 5" d="M0.0,875.4C3.1,874.2 12.4,871.2 18.6,868.6C24.8,865.9 31.0,862.6 37.2,859.4C43.4,856.3 49.6,852.8 55.9,849.6C62.1,846.4 68.3,842.1 74.5,840.3C80.7,838.5 86.9,838.2 93.1,838.6C99.3,839.1 105.5,840.7 111.7,842.8C117.9,844.9 124.1,848.7 130.3,851.2C136.5,853.6 142.7,855.6 148.9,857.7C155.2,859.7 161.4,861.7 167.6,863.7C173.8,865.6 180.0,867.5 186.2,869.4C192.4,871.2 198.6,873.1 204.8,874.8C211.0,876.6 217.2,878.3 223.4,879.9C229.6,881.5 235.8,883.1 242.0,884.6C248.2,886.1 254.4,887.5 260.7,888.8C266.9,890.1 273.1,891.2 279.3,892.5C285.5,893.7 291.7,894.9 297.9,896.1C304.1,897.3 310.3,898.2 316.5,899.6C322.7,900.9 328.9,902.2 335.1,904.1C341.3,906.1 347.5,908.8 353.7,911.3C360.0,913.8 366.2,916.5 372.4,919.2C378.6,921.8 384.8,924.6 391.0,927.3C397.2,929.9 403.4,932.6 409.6,935.1C415.8,937.6 422.0,940.0 428.2,942.1C434.4,944.2 440.6,946.1 446.8,947.8C453.0,949.5 459.2,950.9 465.5,952.3C471.7,953.7 477.9,954.9 484.1,956.1C490.3,957.2 496.5,958.2 502.7,959.1C508.9,960.1 515.1,960.9 521.3,961.6C527.5,962.4 533.7,963.0 539.9,963.6C546.1,964.1 552.3,964.6 558.5,965.0C564.8,965.4 571.0,965.7 577.2,965.9C583.4,966.1 589.6,966.4 595.8,966.3C602.0,966.3 608.2,966.1 614.4,965.6C620.6,965.0 626.8,964.2 633.0,963.1C639.2,962.0 645.4,960.6 651.6,959.1C657.8,957.6 664.0,955.8 670.3,954.0C676.5,952.1 682.7,950.0 688.9,947.9C695.1,945.8 701.3,943.6 707.5,941.4C713.7,939.1 719.9,936.8 726.1,934.6C732.3,932.3 738.5,930.0 744.7,927.8C750.9,925.6 757.1,923.6 763.3,921.2C769.6,918.9 775.8,915.8 782.0,913.8C788.2,911.8 794.4,910.3 800.6,909.2C806.8,908.2 813.0,907.1 819.2,907.6C825.4,908.1 831.6,910.4 837.8,912.1C844.0,913.7 850.2,915.8 856.4,917.4C862.6,919.0 868.8,920.7 875.1,921.9C881.3,923.0 887.5,924.0 893.7,924.3C899.9,924.6 906.1,924.5 912.3,923.6C918.5,922.7 924.7,920.8 930.9,918.7C937.1,916.7 943.3,913.8 949.5,911.2C955.7,908.5 961.9,905.4 968.1,902.7C974.4,900.0 980.6,895.7 986.8,895.0C993.0,894.2 999.2,897.0 1005.4,898.3C1011.6,899.7 1017.8,901.7 1024.0,903.2C1030.2,904.6 1036.4,906.2 1042.6,907.0C1048.8,907.8 1055.0,908.0 1061.2,907.9C1067.4,907.8 1073.6,907.0 1079.9,906.4C1086.1,905.8 1092.3,905.0 1098.5,904.2C1104.7,903.4 1110.9,902.6 1117.1,901.7C1123.3,900.9 1129.5,899.9 1135.7,899.1C1141.9,898.2 1148.1,897.3 1154.3,896.5C1160.5,895.7 1166.7,894.9 1172.9,894.3C1179.2,893.6 1185.4,892.9 1191.6,892.4C1197.8,891.9 1204.0,891.6 1210.2,891.1C1216.4,890.7 1222.6,890.6 1228.8,889.8C1235.0,889.0 1241.2,887.8 1247.4,886.4C1253.6,885.0 1259.8,883.1 1266.0,881.6C1272.2,880.0 1278.4,877.5 1284.7,877.2C1290.9,876.9 1297.1,879.0 1303.3,879.9C1309.5,880.8 1315.7,881.8 1321.9,882.5C1328.1,883.3 1334.3,884.1 1340.5,884.4C1346.7,884.7 1352.9,884.8 1359.1,884.4C1365.3,883.9 1371.5,882.6 1377.7,881.7C1384.0,880.8 1390.2,879.7 1396.4,878.7C1402.6,877.8 1408.8,876.9 1415.0,876.0C1421.2,875.2 1427.4,874.3 1433.6,873.6C1439.8,872.9 1446.0,872.3 1452.2,872.0C1458.4,871.7 1464.6,872.0 1470.8,871.8C1477.0,871.7 1483.2,871.1 1489.5,871.3C1495.7,871.5 1501.9,872.1 1508.1,872.8C1514.3,873.6 1520.5,875.1 1526.7,875.9C1532.9,876.7 1539.1,877.2 1545.3,877.7C1551.5,878.1 1557.7,878.4 1563.9,878.8C1570.1,879.2 1576.3,879.5 1582.5,880.0C1588.8,880.6 1595.0,881.1 1601.2,881.9C1607.4,882.7 1613.6,883.6 1619.8,884.8C1626.0,886.0 1632.2,887.3 1638.4,889.0C1644.6,890.6 1650.8,892.4 1657.0,894.5C1663.2,896.6 1669.4,899.0 1675.6,901.5C1681.8,904.1 1688.0,906.9 1694.3,909.8C1700.5,912.6 1706.7,915.6 1712.9,918.6C1719.1,921.7 1725.3,924.8 1731.5,927.8C1737.7,930.8 1743.9,933.9 1750.1,936.9C1756.3,939.8 1762.5,942.8 1768.7,945.5C1774.9,948.3 1781.1,951.0 1787.3,953.4C1793.6,955.8 1799.8,958.1 1806.0,960.2C1812.2,962.2 1818.4,964.0 1824.6,965.5C1830.8,967.1 1837.0,968.3 1843.2,969.6C1849.4,970.8 1855.6,972.2 1861.8,973.3C1868.0,974.4 1874.2,975.5 1880.4,976.3C1886.6,977.1 1892.8,977.8 1899.1,978.3C1905.3,978.8 1911.5,979.1 1917.7,979.3C1923.9,979.4 1930.1,979.4 1936.3,979.2C1942.5,978.9 1948.7,978.5 1954.9,977.7C1961.1,977.0 1967.3,976.0 1973.5,974.7C1979.7,973.3 1985.9,972.1 1992.1,969.4C1998.4,966.8 2004.6,963.0 2010.8,958.7C2017.0,954.4 2023.2,948.7 2029.4,943.4C2035.6,938.0 2044.9,929.3 2048.0,926.5" fill="none" stroke="#cdbaae" stroke-width="3.6" stroke-linecap="round" opacity="0.420"/><ellipse id="Mist 5" cx="760.4" cy="1023.1" rx="1269.8" ry="89.8" fill="url(#mv)" opacity="0.274"/></g><rect id="Air" x="0" y="877.2" width="2048" height="142.8" fill="url(#mair)"/><g id="Field notes."></g></svg>